<svg width="233" height="14" fill="none" xmlns="http://www.w3.org/2000/svg"><path d="M18.434.024h2.59c.058 0 .09.03.09.09v10.978c0 .06.031.09.074.09h6.753c.075.016.106.06.106.107v2.59c0 .074-.031.105-.106.105h-9.507c-.075 0-.106-.031-.106-.106V.126c.016-.075.047-.102.106-.102ZM43.903.024h2.633c.043 0 .074.031.074.106v5.387c0 .043.032.074.09.074h8.229a.072.072 0 0 0 .074-.074V.126c0-.044.032-.09.106-.106h2.633c.043 0 .09.031.106.106V13.89c0 .059-.031.09-.09.09h-2.664c-.06 0-.09-.031-.09-.09V8.487a.072.072 0 0 0-.075-.074H46.7c-.06 0-.09.031-.09.074v5.403c0 .059-.032.09-.075.09h-2.633c-.075 0-.106-.031-.106-.106V.127c.004-.06.031-.09.106-.102ZM16.915 13.859 9.523.067C9.507.035 9.48.024 9.448.024H7.471c-.032 0-.043.015-.059.043L.016 13.859C0 13.874 0 13.874 0 13.89s0 .031.016.043c.015.032.031.043.074.043h2.974a.084.084 0 0 0 .075-.043l1.036-1.93h8.613l1.035 1.93c.016.032.032.043.075.043h2.947c.074 0 .09-.058.09-.074-.004-.012-.004-.027-.02-.043ZM5.69 9.174l2.72-5.078c.043-.058.106-.058.149 0l2.719 5.078H5.689ZM76.215 13.859 68.823.067c-.016-.032-.043-.043-.075-.043h-1.977c-.032 0-.043.015-.06.043l-7.395 13.792c-.016.015-.016.015-.016.031s0 .031.016.043c.015.032.03.043.074.043h2.974a.084.084 0 0 0 .075-.043l1.036-1.93h8.612l1.036 1.93c.016.032.032.043.075.043h2.947c.074 0 .09-.058.09-.074-.004-.012-.004-.027-.02-.043ZM64.99 9.174l2.72-5.078c.043-.058.105-.058.149 0l2.719 5.078h-5.588ZM41.953 4.367c0-.341-.047-.765-.165-1.251-.106-.491-.341-.966-.698-1.429C40.3.675 39.112.02 37.8.02h-8.255a.089.089 0 0 0-.063.023l-.04-.023v13.854c0 .075.032.106.107.106h2.59c.074 0 .105-.031.105-.106v-3.92c0-.043.032-.074.09-.074h5.074c.655 0 1.322-.074 2.025-.24.73-.25 1.279-.639 1.68-1.176.4-.538.639-1.028.729-1.488.086-.455.118-.835.118-1.118-.004 0-.004-1.487-.008-1.49Zm-3.198 2.33c-.208.24-.49.358-.863.358h-5.654V2.833h5.654c1.008 0 1.232.957 1.236 1.377v1.48c0 .215-.02.64-.373 1.008ZM109.406 11.143h-16.86c-2.382 0-4.167-1.577-4.167-4.033v-.165c.043-2.307 1.322-4.108 4.092-4.108h16.935a7.981 7.981 0 0 1 2.347-2.84H92.695c-4.94 0-7.126 3.436-7.126 6.948 0 3.331 1.994 7.008 7.11 7.008h19.023a8 8 0 0 1-2.296-2.81Z" fill="#25282B"/><path d="M111.56 6.977c0-4.317 2.975-6.965 7.126-6.965h2.739c4.151 0 7.125 2.617 7.125 6.965 0 2.915-1.534 6.128-5.399 6.843a8.705 8.705 0 0 1-1.71.149H118.6c-3.124 0-5.474-1.534-6.518-4.108-.345-.86-.522-1.825-.522-2.884Zm2.814.18c0 2.41 1.726 3.96 4.061 4.002h3.139c2.393 0 4.167-1.518 4.167-4.092v-.09c-.043-2.308-1.295-4.12-4.077-4.12h-3.198c-2.766 0-4.045 1.816-4.092 4.12v.18ZM130.987 13.91V.106c0-.075.031-.106.09-.106h2.798c.016 0 .043.016.059.031 1.353 2.127 5.265 8.11 5.862 8.986.043.059.09.059.133 0C143.547 3.288 145.45.298 145.674 0h2.915c.075.016.118.059.118.106v13.792c0 .075-.043.106-.118.106h-2.574c-.075 0-.106-.031-.106-.106V5.042c0-.106-.074-.09-.09-.09a.084.084 0 0 0-.075.043l-5.622 8.91c-.016.032-.044.044-.075.044h-.4c-.016 0-.043-.016-.059-.031-.475-.581-4.552-7.126-5.623-8.911-.016-.032-.043-.043-.074-.043-.016 0-.091-.016-.091.09v8.836c0 .075-.031.106-.106.106h-2.617c-.059.004-.09-.024-.09-.086ZM164.908 6.977c0-4.317 2.974-6.965 7.125-6.965h2.739c4.152 0 7.126 2.617 7.126 6.965 0 2.915-1.534 6.128-5.399 6.843a8.715 8.715 0 0 1-1.711.149h-2.841c-3.123 0-5.473-1.534-6.517-4.108-.342-.86-.522-1.825-.522-2.884Zm2.813.18c0 2.41 1.727 3.96 4.061 4.002h3.139c2.394 0 4.167-1.518 4.167-4.092v-.09c-.043-2.308-1.294-4.12-4.076-4.12h-3.198c-2.766 0-4.046 1.816-4.093 4.12v.18ZM183.165 4.344c0-1.295.475-2.394 1.264-3.17a4.204 4.204 0 0 1 2.899-1.178h9.001c.075 0 .118.031.118.09v2.649c0 .043-.031.074-.09.074h-9.135c-1.62 0-1.62 2.751 0 2.751h4.36c1.31 0 2.707.031 3.943.565.906.4 1.546 1.13 1.876 1.966.325.847.266 1.412.266 1.546 0 1.161-.474 2.574-1.608 3.406-.891.655-1.919.906-2.99.906h-9.119c-.075 0-.106-.031-.106-.106V11.21c.031-.074.059-.106.106-.106h9.609c.463 0 .863-.282 1.103-.655.239-.373.239-.671.239-.773 0-.463-.314-1.177-1.577-1.295h-5.654c-2.665 0-4.391-1.13-4.509-3.81.004-.078.004-.153.004-.227ZM199.959 0h2.664c.059 0 .09.031.09.075v13.792c0 .058-.031.09-.09.09h-2.664c-.059 0-.09-.032-.09-.09V.075c.004-.044.031-.075.09-.075ZM219.15 0h-13.859c-.043 0-.074.031-.106.106v2.59c0 .074.032.106.106.106h5.423c.012 0 .02.003.027.003a.071.071 0 0 1 .055.071v10.975c0 .043.016.07.044.086.015.012.039.02.07.02h2.621a.126.126 0 0 0 .071-.02c.027-.015.043-.043.043-.086V2.872c0-.035.02-.063.055-.07.008 0 .016-.004.027-.004h5.423c.075 0 .106-.032.106-.106V.102c-.031-.07-.063-.102-.106-.102ZM232.565 2.798c.075 0 .106-.032.106-.106V.102c0-.043-.031-.09-.106-.106H221.226v5.639c0 .003-.004.007-.004.015v8.2c0 .075.031.107.106.107h11.234c.074 0 .105-.032.105-.106v-2.633c0-.059-.043-.059-.105-.106h-8.48a.072.072 0 0 1-.074-.074V8.464c0-.044.031-.075.074-.075h8.452c.075 0 .106-.031.106-.09V5.65c0-.059-.031-.09-.106-.09H224V2.798h8.565ZM163.68 4.367a5.39 5.39 0 0 0-.165-1.251c-.106-.491-.341-.966-.698-1.429C162.028.675 160.839.02 159.528.02h-8.255a.09.09 0 0 0-.063.023l-.039-.023v13.854c0 .075.031.106.106.106h2.589c.075 0 .106-.031.106-.106v-3.92c0-.043.032-.074.091-.074h5.073c.655 0 1.322-.074 2.025-.24.73-.25 1.279-.639 1.679-1.176.4-.538.64-1.028.73-1.488.086-.455.118-.835.118-1.118-.008 0-.008-1.487-.008-1.49Zm-3.202 2.33c-.208.24-.49.358-.863.358h-5.654V2.833h5.654c1.008 0 1.232.957 1.236 1.377v1.48c0 .215-.02.64-.373 1.008Z" fill="#25282B"/></svg>