<svg width="140" height="38" fill="none" xmlns="http://www.w3.org/2000/svg"><g clip-path="url(#a)" fill="#25282B"><path d="M17.544 0h2.462c.056 0 .085.028.085.085v10.449c0 .056.028.085.07.085h6.428c.07.014.099.056.099.098v2.463c0 .07-.028.099-.1.099h-9.044c-.07 0-.1-.029-.1-.1V.1c.015-.07.043-.099.1-.099ZM41.783 0h2.505c.042 0 .07.028.07.099v5.126c0 .042.029.07.085.07h7.832c.042 0 .07-.028.07-.07V.099c0-.043.028-.085.099-.099h2.505c.042 0 .084.028.099.099v13.098c0 .057-.029.085-.085.085H52.43c-.057 0-.085-.028-.085-.085v-5.14c0-.042-.028-.07-.07-.07h-7.832c-.056 0-.085.028-.085.07v5.14c0 .057-.028.085-.07.085h-2.505c-.07 0-.099-.028-.099-.099V.1c0-.057.029-.085.099-.099ZM16.1 13.17 9.064.041A.078.078 0 0 0 8.993 0H7.107c-.028 0-.042.014-.056.042L.014 13.17C0 13.183 0 13.183 0 13.197s0 .029.014.043c.014.028.028.042.07.042h2.833a.078.078 0 0 0 .071-.042l.984-1.838h8.199l.984 1.838c.014.028.028.042.07.042h2.805c.07 0 .085-.056.085-.07 0-.015 0-.029-.014-.043ZM5.413 8.71 8 3.88c.042-.056.099-.056.141 0l2.586 4.83H5.412ZM72.538 13.17 65.5.041A.078.078 0 0 0 65.43 0h-1.884c-.028 0-.042.014-.056.042L56.451 13.17c-.015.014-.015.014-.015.028s0 .029.015.043c.014.028.028.042.07.042h2.833a.078.078 0 0 0 .07-.042l.985-1.838h8.198l.984 1.838c.015.028.029.042.071.042h2.805c.07 0 .084-.056.084-.07 0-.015 0-.029-.014-.043ZM61.85 8.71l2.59-4.83c.042-.056.098-.056.14 0l2.586 4.83H61.85ZM39.931 4.135c0-.325-.042-.73-.155-1.193-.099-.466-.325-.92-.667-1.358-.751-.963-1.884-1.588-3.13-1.588H28.12a.096.096 0 0 0-.06.022L28.021 0v13.183c0 .07.028.1.099.1h2.462c.07 0 .1-.03.1-.1V9.454c0-.042.027-.07.084-.07h4.83c.624 0 1.259-.07 1.926-.226.695-.24 1.217-.61 1.601-1.118.381-.512.61-.977.695-1.415.085-.434.113-.797.113-1.065V4.135Zm-3.044 2.219c-.198.225-.466.338-.822.338h-5.38V2.678h5.38c.96 0 1.174.913 1.174 1.312v1.407c0 .202-.017.607-.352.957ZM22.687 34.336H6.64c-2.265 0-3.965-1.5-3.965-3.838v-.155c.042-2.195 1.26-3.91 3.895-3.91h16.115a7.604 7.604 0 0 1 2.233-2.705H6.784C2.08 23.728 0 26.998 0 30.342c0 3.172 1.898 6.672 6.77 6.672h18.1a7.723 7.723 0 0 1-2.183-2.678Z"/><path d="M24.737 30.37c0-4.106 2.833-6.625 6.784-6.625h2.607c3.95 0 6.784 2.491 6.784 6.626 0 2.776-1.457 5.835-5.14 6.512a8.421 8.421 0 0 1-1.63.141h-2.706c-2.974 0-5.21-1.457-6.202-3.909-.328-.818-.497-1.739-.497-2.744Zm2.677.17c0 2.293 1.644 3.768 3.867 3.81h2.988c2.279 0 3.965-1.443 3.965-3.895v-.084c-.042-2.195-1.231-3.923-3.88-3.923h-3.045c-2.635 0-3.852 1.728-3.895 3.923v.169ZM43.23 36.968V23.827c0-.07.028-.1.084-.1h2.664c.014 0 .042.015.056.03a754.431 754.431 0 0 0 5.577 8.55c.043.057.085.057.127 0 3.44-5.45 5.253-8.297 5.465-8.58h2.776c.07.015.113.057.113.1v13.127c0 .07-.042.098-.113.098h-2.448c-.07 0-.099-.028-.099-.098v-8.425c0-.099-.07-.084-.084-.084a.078.078 0 0 0-.07.042l-5.353 8.48a.078.078 0 0 1-.07.043h-.381a.107.107 0 0 1-.057-.028c-.451-.554-4.332-6.784-5.351-8.481a.078.078 0 0 0-.07-.042c-.015 0-.086-.014-.086.084v8.41c0 .071-.028.1-.098.1h-2.49c-.064 0-.093-.029-.093-.085ZM75.512 30.37c0-4.106 2.833-6.625 6.784-6.625h2.607c3.951 0 6.784 2.491 6.784 6.626 0 2.776-1.457 5.835-5.14 6.512a8.42 8.42 0 0 1-1.63.141h-2.706c-2.974 0-5.21-1.457-6.201-3.909-.329-.818-.498-1.739-.498-2.744Zm2.674.17c0 2.293 1.644 3.768 3.867 3.81h2.988c2.279 0 3.965-1.443 3.965-3.895v-.084c-.042-2.195-1.231-3.923-3.88-3.923H82.08c-2.635 0-3.853 1.728-3.895 3.923v.169ZM92.883 27.863c0-1.232.452-2.28 1.203-3.017a3.997 3.997 0 0 1 2.762-1.118h8.566c.07 0 .113.028.113.085v2.518c0 .043-.029.071-.085.071h-8.696c-1.542 0-1.542 2.621 0 2.621h4.149c1.245 0 2.578.028 3.753.54a3.388 3.388 0 0 1 1.785 1.87c.311.807.254 1.344.254 1.47 0 1.105-.451 2.449-1.527 3.243-.851.624-1.828.864-2.847.864h-8.679c-.07 0-.098-.028-.098-.099v-2.505c.028-.07.056-.098.098-.098h9.148c.437 0 .822-.268 1.048-.625.225-.352.225-.638.225-.737 0-.438-.296-1.118-1.499-1.231h-5.38c-2.533 0-4.177-1.076-4.29-3.627-.003-.084-.003-.155-.003-.226ZM108.871 23.728h2.533c.056 0 .084.028.084.07v13.127c0 .057-.028.085-.084.085h-2.533c-.057 0-.085-.028-.085-.085V23.8c0-.043.028-.071.085-.071ZM127.134 23.728H113.94c-.042 0-.07.028-.099.099v2.462c0 .07.029.099.099.099h5.165c.011 0 .018.003.025.003a.066.066 0 0 1 .053.067v10.45c0 .042.014.067.042.08.014.011.035.019.067.019H121.793a.127.127 0 0 0 .067-.018c.025-.014.042-.042.042-.081V26.462c0-.035.022-.06.053-.067.007 0 .014-.004.025-.004h5.165c.07 0 .099-.028.099-.098V23.83c-.039-.074-.068-.102-.11-.102ZM139.901 26.391c.071 0 .099-.028.099-.098V23.83c0-.042-.028-.084-.099-.099h-10.788v5.37c0 .003-.003.007-.003.014v7.803c0 .07.028.1.099.1h10.689c.07 0 .099-.03.099-.1v-2.504c0-.057-.043-.057-.099-.1h-8.072c-.042 0-.07-.027-.07-.07v-2.459c0-.042.028-.07.07-.07h8.044c.07 0 .098-.028.098-.085v-2.519c0-.056-.028-.084-.098-.084h-8.121V26.39h8.152ZM74.341 27.887c0-.324-.042-.73-.155-1.192-.1-.466-.325-.921-.667-1.358-.751-.964-1.884-1.588-3.13-1.588h-7.86a.096.096 0 0 0-.059.021l-.039-.021v13.183c0 .07.028.1.099.1h2.462c.07 0 .1-.03.1-.1v-3.729c0-.042.027-.07.084-.07h4.83c.624 0 1.259-.07 1.925-.226.695-.24 1.218-.61 1.602-1.118.381-.512.61-.977.695-1.415.085-.434.113-.797.113-1.065v-1.422Zm-3.044 2.216c-.198.225-.466.338-.822.338h-5.38v-4.014h5.38c.96 0 1.174.913 1.174 1.312v1.407c0 .202-.017.607-.353.957Z"/></g><defs><clipPath id="a"><path fill="#fff" d="M0 0h140v37.052H0z"/></clipPath></defs></svg>